# xmcd
#
# Track frame offsets: 
#        150
#        31906
#        54653
#        81369
#        102538
#        124980
#        149300
#        171453
#        195768
#        219801
#        247583
#        274762
#        311838
#
# Disc length: 4460 seconds
#
# Revision: 0
# Processed by: cddbd v1.5.2PL0 Copyright (c) Steve Scherf et al.
# Submitted via: ExactAudioCopy v0.99pb3
#
DISCID=b5116a0d
DTITLE=Various Artist - dj selection
DYEAR=1900
DGENRE=Acid Jazz
TTITLE0=GIGI D'AGOSTINO - La passion medley with rectangle
TTITLE1=T 42 - Run to you
TTITLE2=PREZIOSO feat MARVIN - Voices
TTITLE3=MASKARA - Dansez
TTITLE4=CAROLINA MARQUEZ - Super dj
TTITLE5=MARKUS - Electronic
TTITLE6=THE SOUNDLOVERS - Wonderful life
TTITLE7=LADY VIOLET - No way no time
TTITLE8=QUIK feat CHARLOTTE - Need you tonite (la la la)
TTITLE9=MASH - Rock the disco
TTITLE10=FLOORFILLA - Anthem #4
TTITLE11=MAURO PICOTTO - Komodo
TTITLE12=CE CE LEE - Ole lè
EXTD=
EXTT0=
EXTT1=
EXTT2=
EXTT3=
EXTT4=
EXTT5=
EXTT6=
EXTT7=
EXTT8=
EXTT9=
EXTT10=
EXTT11=
EXTT12=
PLAYORDER=
